<svg xmlns="http://www.w3.org/2000/svg" width="122.005" height="101.331"><g><polygon fill-rule="evenodd" clip-rule="evenodd" fill="#394D54" points="32.038,0.183 0,19.314 0,72.66 92.65,101.222 122.005,77.57 122.005,22.429"/><polygon fill-rule="evenodd" clip-rule="evenodd" fill="#A5EAF2" points="5,23.314 92.65,45.131 92.65,94.222 5,67.66"/><g fill-rule="evenodd" clip-rule="evenodd" fill="#31B4D3"><polygon points="7.917,29.184 7.917,66.177 11.364,66.906 11.364,30.067"/><polygon points="14.134,30.801 14.134,68.013 17.598,68.765 17.598,31.68"/><polygon points="20.353,32.418 20.353,69.848 23.831,70.624 23.831,33.292"/><polygon points="26.569,34.035 26.569,71.684 30.063,72.483 30.063,34.905"/><polygon points="32.789,35.652 32.789,73.519 36.298,74.341 36.298,36.518"/><polygon points="39.007,37.27 39.007,75.354 42.532,76.201 42.532,38.13"/><polygon points="45.224,38.887 45.224,77.19 48.765,78.06 48.765,39.743"/><polygon points="51.442,40.504 51.442,79.025 54.999,79.919 54.999,41.356"/><polygon points="57.661,42.122 57.661,80.86 61.231,81.777 61.231,42.968"/><polygon points="63.878,43.737 63.878,82.697 67.466,83.637 67.466,44.581"/><polygon points="70.097,45.355 70.097,84.532 73.699,85.496 73.699,46.193"/><polygon points="76.313,46.973 76.313,86.367 79.933,87.354 79.933,47.806"/><polygon points="86.165,49.418 82.532,48.589 82.532,88.203 86.165,89.213"/></g><g fill="#394D54"><polygon points="7.917,29.184 7.917,66.177 11.364,66.906 11.364,30.067"/><polygon points="14.134,30.801 14.134,68.013 17.598,68.765 17.598,31.68"/><polygon points="20.353,32.418 20.353,69.848 23.831,70.624 23.831,33.292"/><polygon points="26.569,34.035 26.569,71.684 30.063,72.483 30.063,34.905"/><polygon points="32.789,35.652 32.789,73.519 36.298,74.341 36.298,36.518"/><polygon points="39.007,37.27 39.007,75.354 42.532,76.201 42.532,38.13"/><polygon points="45.224,38.887 45.224,77.19 48.765,78.06 48.765,39.743"/><polygon points="51.442,40.504 51.442,79.025 54.999,79.919 54.999,41.356"/><polygon points="57.661,42.122 57.661,80.86 61.231,81.777 61.231,42.968"/><polygon points="63.878,43.737 63.878,82.697 67.466,83.637 67.466,44.581"/><polygon points="70.097,45.355 70.097,84.532 73.699,85.496 73.699,46.193"/><polygon points="76.313,46.973 76.313,86.367 79.933,87.354 79.933,47.806"/><polygon points="86.165,49.418 82.532,48.589 82.532,88.203 86.165,89.213"/></g><polygon fill-rule="evenodd" clip-rule="evenodd" fill="#31B4D3" points="92.65,46.469 117.005,29.184 117.005,75.212 92.65,94.398"/><polygon fill-rule="evenodd" clip-rule="evenodd" fill="#fff" points="5,23.314 32.538,6.683 117.005,27.429 92.65,45.131"/><rect x="46.075" y="-12.046" transform="matrix(.241 -.971 .971 .241 3.208 72.311)" fill="#394D54" width="3.525" height="92.299"/><rect x="103.715" y="18.122" transform="matrix(.57 .822 -.822 .57 74.552 -71.371)" fill="#394D54" width="3.525" height="34.869"/><rect x="90.234" y="44.498" transform="matrix(1 -.002 .002 1 -.155 .204)" fill="#394D54" width="3.523" height="51.174"/><path fill="#394D54" d="M198.224-18.665"/><path fill="#394D54" d="M224.292-18.665"/><path fill="#394D54" d="M231.229-18.665"/></g></svg>